# xmcd
#
# Track frame offsets:
#	150
#	13875
#	31500
#	49275
#	66600
#	81600
#	99675
#	116775
#	131550
#	146700
#	163050
#	182250
#	195750
#	210825
#	226500
#	245700
#	264150
#
# Disc length: 3554 seconds
#
# Revision: 1
# Processed by: cddbd v1.5.2PL0 Copyright (c) Steve Scherf et al.
# Submitted via: audiograbber 1.83.01
#
DISCID=e70de011
DTITLE=Various Artist - BHK312
DYEAR=1900
DGENRE=Karaoke
TTITLE0=Keith, Toby - Get Drunk And Be Somebody
TTITLE1=Dixie Chicks - Not Ready To Make Nice
TTITLE2=Adkins, Trace - Honky Tonk Badonkadonk
TTITLE3=Bon Jovi and Jennifer Nettles - Who Says You Can't Go Home
TTITLE4=Underwood, Carrie - Before He Cheats
TTITLE5=Underwood, Carrie - Don't Forget To Remember Me
TTITLE6=Underwood, Carrie - Jesus, Take The Wheel
TTITLE7=Williams, Hank Jr. and Friends - That's How They Do It In Dixie
TTITLE8=Chesney, Kenny - Summertime
TTITLE9=McGraw, Tim - My Little Girl
TTITLE10=Keith, Toby - Little Too Late, A
TTITLE11=Wilson, Gretchen - California Girls
TTITLE12=Wilson, Gretchen - Politically Uncorrect
TTITLE13=Evans, Sara - Cheatin'
TTITLE14=Urban, Keith - Tonight I Wanna Cry
TTITLE15=Sugarland - Just Might (Make Me Believe)
TTITLE16=Data - Data
EXTD=
EXTT0=
EXTT1=
EXTT2=
EXTT3=
EXTT4=
EXTT5=
EXTT6=
EXTT7=
EXTT8=
EXTT9=
EXTT10=
EXTT11=
EXTT12=
EXTT13=
EXTT14=
EXTT15=
EXTT16=
PLAYORDER=
